<svg width="385" height="361" viewBox="0 0 385 361" version="1.1" xmlns="http://www.w3.org/2000/svg" xmlns:xlink="http://www.w3.org/1999/xlink">
<title>arc2</title>
<desc>Created using Figma</desc>
<g id="Canvas" transform="translate(-40505 -7092)">
<g id="arc2" opacity="0.4">
<g id="Combined Shape" opacity="0.8" filter="url(#filter0_f)">
<use xlink:href="#path0_fill" transform="translate(40535 7122)" fill="url(#paint0_linear)"/>
</g>
<g id="Combined Shape" opacity="0.8" filter="url(#filter1_f)">
<use xlink:href="#path1_fill" transform="translate(40538.5 7139.66)" fill="url(#paint1_linear)"/>
</g>
</g>
</g>
<defs>
<filter id="filter0_f" filterUnits="userSpaceOnUse" x="40505" y="7092" width="385" height="361" color-interpolation-filters="sRGB">
<feFlood flood-opacity="0" result="BackgroundImageFix"/>
<feBlend mode="normal" in="SourceGraphic" in2="BackgroundImageFix" result="shape"/>
<feGaussianBlur stdDeviation="15" result="effect1_foregroundBlur"/>
</filter>
<filter id="filter1_f" filterUnits="userSpaceOnUse" x="40508" y="7109" width="376" height="336" color-interpolation-filters="sRGB">
<feFlood flood-opacity="0" result="BackgroundImageFix"/>
<feBlend mode="normal" in="SourceGraphic" in2="BackgroundImageFix" result="shape"/>
<feGaussianBlur stdDeviation="15" result="effect1_foregroundBlur"/>
</filter>
<linearGradient id="paint0_linear" x1="0" y1="0" x2="1" y2="0" gradientUnits="userSpaceOnUse" gradientTransform="matrix(13.926 332.802 -359.338 12.8976 328.243 18.895)">
<stop offset="0" stop-color="#71B5FF"/>
<stop offset="1" stop-color="#84F1E2"/>
</linearGradient>
<linearGradient id="paint1_linear" x1="0" y1="0" x2="1" y2="0" gradientUnits="userSpaceOnUse" gradientTransform="matrix(13.5119 304.08 -348.652 11.7845 318.481 17.2643)">
<stop offset="0" stop-color="#71B5FF"/>
<stop offset="1" stop-color="#84F1E2"/>
</linearGradient>
<path id="path0_fill" fill-rule="evenodd" d="M 124.006 293.977C 30.4451 267.356 -12.2558 167.403 3.04323 101.979C 18.3423 36.5546 126.567 -28.4254 216.038 13.0411C 305.509 54.5075 341.2 136.068 318.205 201.81C 295.211 267.553 217.567 320.599 124.006 293.977ZM 133.634 267.329C 214.651 291.221 287.988 255.496 311.237 196.959C 334.486 138.423 277.538 67.3643 201.424 43.2016C 125.309 19.039 24.8842 49.3468 9.41414 101.977C -6.05591 154.607 52.6162 243.437 133.634 267.329Z"/>
<path id="path1_fill" fill-rule="evenodd" d="M 77.3861 223.418C 92.3637 234.463 108.699 243.349 125.478 248.952C 144.346 255.252 163.791 257.999 182.733 257.524C 229.096 257.108 269.034 237.303 292.744 206.617C 297.628 200.484 301.901 193.853 305.464 186.754C 335.216 127.485 278.756 52.1278 201.586 26.6968C 124.415 1.26569 19.7394 30.2205 5.55841 86.4593C -1.53553 114.592 10.7026 149.306 33.598 179.945C 45.4116 195.968 60.2881 211.006 77.3861 223.418ZM 117.513 266.233C 48.7967 239.411 -12.9468 156.28 2.35225 90.8552C 17.6513 25.4309 142.202 -23.9019 217.369 12.1953C 292.537 48.2925 331.781 124.394 308.787 190.137C 285.792 255.88 186.228 293.055 117.513 266.233Z"/>
</defs>
</svg>
