<svg width="384" height="381" viewBox="0 0 384 381" version="1.1" xmlns="http://www.w3.org/2000/svg" xmlns:xlink="http://www.w3.org/1999/xlink">
<title>arc1</title>
<desc>Created using Figma</desc>
<g id="Canvas" transform="translate(-40584 -7449)">
<g id="arc1" filter="url(#filter0_f)">
<use xlink:href="#path0_fill" transform="translate(40614 7479)" fill="url(#paint0_linear)" fill-opacity="0.3"/>
<use xlink:href="#path1_fill" transform="translate(40614 7479)" fill="url(#paint1_linear)" fill-opacity="0.3"/>
</g>
</g>
<defs>
<filter id="filter0_f" filterUnits="userSpaceOnUse" x="40584" y="7449" width="384" height="381" color-interpolation-filters="sRGB">
<feFlood flood-opacity="0" result="BackgroundImageFix"/>
<feBlend mode="normal" in="SourceGraphic" in2="BackgroundImageFix" result="shape"/>
<feGaussianBlur stdDeviation="15" result="effect1_foregroundBlur"/>
</filter>
<linearGradient id="paint0_linear" x1="0" y1="0" x2="1" y2="0" gradientUnits="userSpaceOnUse" gradientTransform="matrix(187.265 245.938 -260.081 167.052 204.315 -46.6211)">
<stop offset="0" stop-color="#C79DFC"/>
<stop offset="1" stop-color="#40BEFD"/>
</linearGradient>
<linearGradient id="paint1_linear" x1="0" y1="0" x2="1" y2="0" gradientUnits="userSpaceOnUse" gradientTransform="matrix(187.265 245.938 -260.081 167.052 204.315 -46.6211)">
<stop offset="0" stop-color="#C79DFC"/>
<stop offset="1" stop-color="#40BEFD"/>
</linearGradient>
<path id="path0_fill" fill-rule="evenodd" d="M 304.595 285.164C 273.654 331.546 149.154 343.62 60.5116 255.618C -28.1308 167.617 -8.59489 71.312 50.0862 28.5731C 108.767 -14.1658 198.259 -13.437 266.174 61.5755C 334.089 136.588 335.537 238.781 304.595 285.164ZM 302.299 269.583C 328.514 224.941 322.953 170.571 244.389 78.8988C 165.825 -12.7729 98.5876 1.525 58.7808 32.8144C 18.974 64.1038 9.01231 158.611 97.6547 246.612C 186.297 334.613 276.083 314.226 302.299 269.583Z"/>
<path id="path1_fill" fill-rule="evenodd" d="M 302.133 270.412C 328.255 225.877 322.616 171.581 243.989 79.9284C 165.361 -11.724 98.2116 2.44961 58.4917 33.6307C 18.7717 64.8118 8.96451 159.16 97.6548 247.163C 186.345 335.166 276.012 314.947 302.133 270.412ZM 300.741 277.91C 270.117 318.506 171.36 345.01 82.6694 257.007C -6.02089 169.004 -1.97835 73.7711 56.5798 31.1867C 115.138 -11.3977 189.227 -5.07498 258.842 72.565C 328.457 150.205 331.366 237.314 300.741 277.91Z"/>
</defs>
</svg>
